inDegrees=yes
name=ik_S49_A01_T02
DataType=double
version=3
OpenSimVersion=4.3-2021-08-27-4bc7ad9
endheader
time	pelvis_tilt	pelvis_list	pelvis_rotation	pelvis_tx	pelvis_ty	pelvis_tz	hip_flexion_r	hip_adduction_r	hip_rotation_r	knee_angle_r	knee_angle_r_beta	ankle_angle_r	subtalar_angle_r	mtp_angle_r	hip_flexion_l	hip_adduction_l	hip_rotation_l	knee_angle_l	knee_angle_l_beta	ankle_angle_l	subtalar_angle_l	mtp_angle_l	lumbar_extension	lumbar_bending	lumbar_rotation	arm_flex_r	arm_add_r	arm_rot_r	elbow_flex_r	pro_sup_r	wrist_flex_r	wrist_dev_r	arm_flex_l	arm_add_l	arm_rot_l	elbow_flex_l	pro_sup_l	wrist_flex_l	wrist_dev_l
0	0	0	0	0	0.9399999999999999	0	0	0	0	0	0	0	0	0	0	0	0	0	0	0	0	0	0	0	0	0	0	0	0	89.99999999963507	0	0	0	0	0	0	89.99999999869995	0	0
0.02	-1.425597798077354	-6.136510247475147	-88.52513418864082	0	0.9399999999999999	0	-9.816624070491528	1.644821114231701	-4.608556348264688	-2.971320111410863	-0.0518593190748443	0	0	0	-4.929121044626924	-3.878648126330901	-8.668640909626955	4.902574402804716	0.08556606515293702	0	0	0	0	0	0	1.883220864709123	-1.883220864709123	0.3355423641597096	9.365321553344856	89.66445765519329	0	0	1.883220864709123	-1.883220864709123	0.3355423641597096	9.365321553344856	89.66445765432103	0	0
0.04	-1.416797300125763	-6.168371221351763	-88.51722778202205	0	0.9399999999999999	0	-9.822665106415329	1.632014852994973	-4.639073326774506	-2.950863838414205	-0.05150228975836581	0	0	0	-4.967356397995907	-3.887752369866085	-8.661497132808497	4.90644937350983	0.08563369615015957	0	0	0	0	0	0	2.011050752716175	-2.011050752716175	0.3594742456086016	9.813657978174211	89.64052577515773	0	0	2.011050752716175	-2.011050752716175	0.3594742456086016	9.813657978174211	89.64052577428993	0	0
0.06	-1.412517905734864	-6.171575642254599	-88.50468913772603	0	0.9399999999999999	0	-9.752241713261853	1.615611870701925	-4.664260387225923	-2.688446346978866	-0.04692224051799511	0	0	0	-4.866092579107627	-3.887911158672311	-8.6688610898345	5.177104961062444	0.09035752729187248	0	0	0	0	0	0	2.663178485204592	-2.663178485204592	0.4800284042677048	12.13635944813631	89.51997162359326	0	0	2.663178485204592	-2.663178485204592	0.4800284042677048	12.13635944813631	89.51997162274796	0	0
0.08	-1.422898002447017	-6.239650634863755	-88.49762584903944	0	0.9399999999999999	0	-9.867160870912491	1.644620873910466	-4.651001090408131	-2.936914806859001	-0.05125883323026291	0	0	0	-4.969487859483881	-3.882042197735691	-8.682257619298349	5.007689820835559	0.08740067529218544	0	0	0	0	0	0	2.998667377994744	-2.998667377994744	0.5421714095979838	13.25010110096422	89.45782862192291	0	0	2.998667377994744	-2.998667377994744	0.5421714095979838	13.25010110096422	89.45782862108922	0	0
0.1	-1.426198415729293	-6.256472225067898	-88.48644020216463	0	0.9399999999999999	0	-9.872814378897921	1.652206091485454	-4.649709018790619	-2.988093973832341	-0.05215207820237563	0	0	0	-4.970363040137621	-3.876426697001542	-8.703576344658162	5.027588942235847	0.08774798047887454	0	0	0	0	0	0	3.158612870482053	-3.158612870482053	0.5715451768059722	13.74287792286535	89.42845485644115	0	0	3.158612870482053	-3.158612870482053	0.5715451768059722	13.74287792286535	89.42845485561291	0	0
0.12	-1.448088349130193	-6.309934739449115	-88.4883505931826	0	0.9399999999999999	0	-9.892931448284525	1.682057576439826	-4.611011503713004	-2.891204197650499	-0.05046103259648211	0	0	0	-5.011843545221199	-3.86432338171921	-8.708567438792041	5.022439737207145	0.08765810989726343	0	0	0	0	0	0	3.314508110455318	-3.314508110455318	0.6002436074841093	14.27531604328117	89.39975642745092	0	0	3.314508110455318	-3.314508110455318	0.6002436074841093	14.27531604328117	89.39975642662804	0	0
0.14	-1.441187684932133	-6.344106839401177	-88.48229275470919	0	0.9399999999999999	0	-9.908640954182811	1.681768965839815	-4.587804779291852	-2.874303339588616	-0.05016605697689003	0	0	0	-5.028010793062358	-3.854213374532026	-8.713654941037793	5.070622442597471	0.08849905674884304	0	0	0	0	0	0	3.449971691508384	-3.449971691508384	0.6249923572078063	14.68753311361699	89.37500767917982	0	0	3.449971691508384	-3.449971691508384	0.6249923572078063	14.68753311361699	89.3750076783616	0	0
0.16	-1.442278377922212	-6.317104848056551	-88.47211403484198	0	0.9399999999999999	0	-9.805701500994431	1.660724936935779	-4.627689862794903	-2.65666234827606	-0.04636750509118154	0	0	0	-4.971028442548401	-3.856098556752932	-8.747881888954963	5.251225638321396	0.09165117715384928	0	0	0	0	0	0	4.077096514954049	-4.077096514954048	0.7403891342698041	17.03243021542416	89.25961090890537	0	0	4.077096514954049	-4.077096514954048	0.7403891342698041	17.03243021542416	89.25961090810875	0	0
0.18	-1.452634368532556	-6.380378451319882	-88.47923467590654	0	0.9399999999999999	0	-9.916489332666703	1.687829561614641	-4.579858767384391	-2.870874937061102	-0.0501062200647012	0	0	0	-5.113752865153679	-3.845549478861123	-8.788088751112397	4.924133593190792	0.08594234400923835	0	0	0	0	0	0	4.158488483396635	-4.158488483396635	0.7553070317974728	17.32247053880366	89.24469301225439	0	0	4.158488483396635	-4.158488483396635	0.7553070317974728	17.32247053880366	89.24469301146058	0	0
0.2	-1.45681202156263	-6.364296593872097	-88.46788584088303	0	0.9399999999999999	0	-9.814033589147854	1.675428844265234	-4.600249671529316	-2.629294339107493	-0.04588984322147406	0	0	0	-5.049904556361137	-3.849704996371887	-8.815797987061615	5.166598371120068	0.09017415270422109	0	0	0	0	0	0	4.728011269201979	-4.728011269201979	0.8591550569637737	19.43072032573406	89.14084499318346	0	0	4.728011269201979	-4.728011269201979	0.8591550569637737	19.43072032573406	89.14084499240916	0	0
0.22	-1.451411028965518	-6.383112580318786	-88.48064082102762	0	0.9399999999999999	0	-9.885265384714682	1.680173576435841	-4.573644361539111	-2.855163726124081	-0.04983200770437484	0	0	0	-5.139011190438938	-3.832105161757508	-8.867953363161272	4.929354593962292	0.08603346766295018	0	0	0	0	0	0	4.876103966767479	-4.876103966767479	0.8862288141341614	20.00450808391973	89.11377123760352	0	0	4.876103966767479	-4.876103966767479	0.8862288141341614	20.00450808391973	89.11377123683441	0	0
0.24	-1.467870573981168	-6.385261037855724	-88.45104097590277	0	0.9399999999999999	0	-9.824111826644895	1.695218438768231	-4.612674288255337	-2.634421832039763	-0.04597933485551491	0	0	0	-5.067959032058337	-3.854002167336609	-8.852705231586526	5.170116035725801	0.09023554753357201	0	0	0	0	0	0	5.395105287890066	-5.395105287890066	0.9798352944812418	21.86805924931276	89.02016476273658	0	0	5.395105287890066	-5.395105287890066	0.9798352944812418	21.86805924931276	89.02016476198501	0	0
0.26	-1.481471672136825	-6.417942665037743	-88.4576900626513	0	0.9399999999999999	0	-9.91642110698735	1.716714075795414	-4.579851017960372	-2.87070982943001	-0.05010333839291849	0	0	0	-5.165087121108225	-3.829961202176133	-8.882872777076548	4.938654131540604	0.08619577521260467	0	0	0	0	0	0	5.532929193021043	-5.532929193021043	1.004759439274307	22.38050887452182	88.9952406194039	0	0	5.532929193021043	-5.532929193021043	1.004759439274307	22.38050887452182	88.99524061865701	0	0
0.28	-1.491601291319483	-6.401282246934262	-88.46883517243174	0	0.9399999999999999	0	-9.821903875024928	1.689135435876404	-4.584388794452916	-2.637306957724355	-0.04602968979804489	0	0	0	-5.105343121457081	-3.839753330545301	-9.014447947369838	5.187792261579295	0.09054405587404162	0	0	0	0	0	0	6.039743969710425	-6.039743969710425	1.095366910015456	24.17415536181904	88.90463315395679	0	0	6.039743969710425	-6.039743969710425	1.095366910015456	24.17415536181904	88.90463315322688	0	0
